<mxfile host="app.diagrams.net" modified="2021-09-20T16:19:37.798Z" agent="5.0 (Macintosh; Intel Mac OS X 10_15_7) AppleWebKit/537.36 (KHTML, like Gecko) Chrome/93.0.4577.82 Safari/537.36" etag="gePGntAezCyrvl9L71jN" version="15.2.9" type="github">
  <diagram id="C5RBs43oDa-KdzZeNtuy" name="Page-1">
    <mxGraphModel dx="3720" dy="1158" grid="1" gridSize="10" guides="1" tooltips="1" connect="1" arrows="1" fold="1" page="1" pageScale="1" pageWidth="827" pageHeight="1169" math="0" shadow="0">
      <root>
        <mxCell id="WIyWlLk6GJQsqaUBKTNV-0" />
        <mxCell id="WIyWlLk6GJQsqaUBKTNV-1" parent="WIyWlLk6GJQsqaUBKTNV-0" />
        <mxCell id="WIyWlLk6GJQsqaUBKTNV-2" value="" style="rounded=0;html=1;jettySize=auto;orthogonalLoop=1;fontSize=11;endArrow=block;endFill=0;endSize=8;strokeWidth=1;shadow=0;labelBackgroundColor=none;edgeStyle=orthogonalEdgeStyle;" parent="WIyWlLk6GJQsqaUBKTNV-1" source="WIyWlLk6GJQsqaUBKTNV-3" target="WIyWlLk6GJQsqaUBKTNV-6" edge="1">
          <mxGeometry relative="1" as="geometry" />
        </mxCell>
        <mxCell id="WIyWlLk6GJQsqaUBKTNV-3" value="&amp;nbsp; &amp;nbsp; &amp;nbsp; &amp;nbsp;" style="rounded=1;whiteSpace=wrap;html=1;fontSize=12;glass=0;strokeWidth=1;shadow=0;" parent="WIyWlLk6GJQsqaUBKTNV-1" vertex="1">
          <mxGeometry x="160" y="80" width="120" height="40" as="geometry" />
        </mxCell>
        <mxCell id="WIyWlLk6GJQsqaUBKTNV-4" value="Yes" style="rounded=0;html=1;jettySize=auto;orthogonalLoop=1;fontSize=11;endArrow=block;endFill=0;endSize=8;strokeWidth=1;shadow=0;labelBackgroundColor=none;edgeStyle=orthogonalEdgeStyle;" parent="WIyWlLk6GJQsqaUBKTNV-1" source="WIyWlLk6GJQsqaUBKTNV-6" target="WIyWlLk6GJQsqaUBKTNV-10" edge="1">
          <mxGeometry y="20" relative="1" as="geometry">
            <mxPoint as="offset" />
          </mxGeometry>
        </mxCell>
        <mxCell id="WIyWlLk6GJQsqaUBKTNV-5" value="No" style="edgeStyle=orthogonalEdgeStyle;rounded=0;html=1;jettySize=auto;orthogonalLoop=1;fontSize=11;endArrow=block;endFill=0;endSize=8;strokeWidth=1;shadow=0;labelBackgroundColor=none;" parent="WIyWlLk6GJQsqaUBKTNV-1" source="WIyWlLk6GJQsqaUBKTNV-6" target="WIyWlLk6GJQsqaUBKTNV-7" edge="1">
          <mxGeometry y="10" relative="1" as="geometry">
            <mxPoint as="offset" />
          </mxGeometry>
        </mxCell>
        <mxCell id="WIyWlLk6GJQsqaUBKTNV-6" value="Lamp&lt;br&gt;plugged in?" style="rhombus;whiteSpace=wrap;html=1;shadow=0;fontFamily=Helvetica;fontSize=12;align=center;strokeWidth=1;spacing=6;spacingTop=-4;" parent="WIyWlLk6GJQsqaUBKTNV-1" vertex="1">
          <mxGeometry x="170" y="170" width="100" height="80" as="geometry" />
        </mxCell>
        <mxCell id="WIyWlLk6GJQsqaUBKTNV-7" value="Plug in lamp" style="rounded=1;whiteSpace=wrap;html=1;fontSize=12;glass=0;strokeWidth=1;shadow=0;" parent="WIyWlLk6GJQsqaUBKTNV-1" vertex="1">
          <mxGeometry x="320" y="190" width="120" height="40" as="geometry" />
        </mxCell>
        <mxCell id="WIyWlLk6GJQsqaUBKTNV-8" value="No" style="rounded=0;html=1;jettySize=auto;orthogonalLoop=1;fontSize=11;endArrow=block;endFill=0;endSize=8;strokeWidth=1;shadow=0;labelBackgroundColor=none;edgeStyle=orthogonalEdgeStyle;" parent="WIyWlLk6GJQsqaUBKTNV-1" source="WIyWlLk6GJQsqaUBKTNV-10" target="WIyWlLk6GJQsqaUBKTNV-11" edge="1">
          <mxGeometry x="0.3333" y="20" relative="1" as="geometry">
            <mxPoint as="offset" />
          </mxGeometry>
        </mxCell>
        <mxCell id="WIyWlLk6GJQsqaUBKTNV-9" value="Yes" style="edgeStyle=orthogonalEdgeStyle;rounded=0;html=1;jettySize=auto;orthogonalLoop=1;fontSize=11;endArrow=block;endFill=0;endSize=8;strokeWidth=1;shadow=0;labelBackgroundColor=none;" parent="WIyWlLk6GJQsqaUBKTNV-1" source="WIyWlLk6GJQsqaUBKTNV-10" target="WIyWlLk6GJQsqaUBKTNV-12" edge="1">
          <mxGeometry y="10" relative="1" as="geometry">
            <mxPoint as="offset" />
          </mxGeometry>
        </mxCell>
        <mxCell id="WIyWlLk6GJQsqaUBKTNV-10" value="Bulb&lt;br&gt;burned out?" style="rhombus;whiteSpace=wrap;html=1;shadow=0;fontFamily=Helvetica;fontSize=12;align=center;strokeWidth=1;spacing=6;spacingTop=-4;" parent="WIyWlLk6GJQsqaUBKTNV-1" vertex="1">
          <mxGeometry x="170" y="290" width="100" height="80" as="geometry" />
        </mxCell>
        <mxCell id="WIyWlLk6GJQsqaUBKTNV-11" value="Repair Lamp" style="rounded=1;whiteSpace=wrap;html=1;fontSize=12;glass=0;strokeWidth=1;shadow=0;" parent="WIyWlLk6GJQsqaUBKTNV-1" vertex="1">
          <mxGeometry x="160" y="430" width="120" height="40" as="geometry" />
        </mxCell>
        <mxCell id="WIyWlLk6GJQsqaUBKTNV-12" value="Replace Bulb" style="rounded=1;whiteSpace=wrap;html=1;fontSize=12;glass=0;strokeWidth=1;shadow=0;" parent="WIyWlLk6GJQsqaUBKTNV-1" vertex="1">
          <mxGeometry x="320" y="310" width="120" height="40" as="geometry" />
        </mxCell>
        <mxCell id="c3Pu6eChfx6K2TWirxze-4" style="edgeStyle=orthogonalEdgeStyle;rounded=0;orthogonalLoop=1;jettySize=auto;html=1;" edge="1" parent="WIyWlLk6GJQsqaUBKTNV-1" source="c3Pu6eChfx6K2TWirxze-0" target="c3Pu6eChfx6K2TWirxze-2">
          <mxGeometry relative="1" as="geometry" />
        </mxCell>
        <mxCell id="c3Pu6eChfx6K2TWirxze-6" value="" style="edgeStyle=orthogonalEdgeStyle;rounded=0;orthogonalLoop=1;jettySize=auto;html=1;exitX=0.75;exitY=1;exitDx=0;exitDy=0;" edge="1" parent="WIyWlLk6GJQsqaUBKTNV-1" source="c3Pu6eChfx6K2TWirxze-0" target="c3Pu6eChfx6K2TWirxze-5">
          <mxGeometry relative="1" as="geometry" />
        </mxCell>
        <mxCell id="c3Pu6eChfx6K2TWirxze-13" value="" style="edgeStyle=orthogonalEdgeStyle;rounded=0;orthogonalLoop=1;jettySize=auto;html=1;" edge="1" parent="WIyWlLk6GJQsqaUBKTNV-1" source="c3Pu6eChfx6K2TWirxze-0" target="c3Pu6eChfx6K2TWirxze-12">
          <mxGeometry relative="1" as="geometry" />
        </mxCell>
        <mxCell id="c3Pu6eChfx6K2TWirxze-0" value="Front end" style="rounded=1;whiteSpace=wrap;html=1;fillColor=#dae8fc;strokeColor=#6c8ebf;" vertex="1" parent="WIyWlLk6GJQsqaUBKTNV-1">
          <mxGeometry x="-540" y="80" width="120" height="50" as="geometry" />
        </mxCell>
        <mxCell id="c3Pu6eChfx6K2TWirxze-2" value="React" style="rounded=1;whiteSpace=wrap;html=1;" vertex="1" parent="WIyWlLk6GJQsqaUBKTNV-1">
          <mxGeometry x="-680" y="150" width="120" height="60" as="geometry" />
        </mxCell>
        <mxCell id="c3Pu6eChfx6K2TWirxze-5" value="&lt;a href=&quot;https://tailwindcss.com/&quot;&gt;Tailwind CSS&lt;/a&gt; (?)" style="rounded=1;whiteSpace=wrap;html=1;" vertex="1" parent="WIyWlLk6GJQsqaUBKTNV-1">
          <mxGeometry x="-510" y="185" width="120" height="50" as="geometry" />
        </mxCell>
        <mxCell id="c3Pu6eChfx6K2TWirxze-9" value="Storage / DB" style="rounded=1;whiteSpace=wrap;html=1;fillColor=#dae8fc;strokeColor=#6c8ebf;" vertex="1" parent="WIyWlLk6GJQsqaUBKTNV-1">
          <mxGeometry x="-521" y="450" width="120" height="50" as="geometry" />
        </mxCell>
        <mxCell id="c3Pu6eChfx6K2TWirxze-12" value="Host on &lt;a href=&quot;https://siasky.net/&quot;&gt;Skynet&lt;/a&gt;" style="whiteSpace=wrap;html=1;rounded=1;" vertex="1" parent="WIyWlLk6GJQsqaUBKTNV-1">
          <mxGeometry x="-350" y="75" width="120" height="60" as="geometry" />
        </mxCell>
        <mxCell id="c3Pu6eChfx6K2TWirxze-31" style="edgeStyle=orthogonalEdgeStyle;rounded=0;orthogonalLoop=1;jettySize=auto;html=1;" edge="1" parent="WIyWlLk6GJQsqaUBKTNV-1" source="c3Pu6eChfx6K2TWirxze-14" target="c3Pu6eChfx6K2TWirxze-27">
          <mxGeometry relative="1" as="geometry" />
        </mxCell>
        <mxCell id="c3Pu6eChfx6K2TWirxze-14" value="&lt;a href=&quot;https://developers.ceramic.network/learn/welcome/&quot;&gt;Ceramic&lt;/a&gt;" style="whiteSpace=wrap;html=1;rounded=1;arcSize=50;align=center;verticalAlign=middle;strokeWidth=1;autosize=1;spacing=4;treeFolding=1;treeMoving=1;newEdgeStyle={&quot;edgeStyle&quot;:&quot;entityRelationEdgeStyle&quot;,&quot;startArrow&quot;:&quot;none&quot;,&quot;endArrow&quot;:&quot;none&quot;,&quot;segment&quot;:10,&quot;curved&quot;:1};" vertex="1" parent="WIyWlLk6GJQsqaUBKTNV-1">
          <mxGeometry x="-650" y="535" width="90" height="30" as="geometry" />
        </mxCell>
        <mxCell id="c3Pu6eChfx6K2TWirxze-15" value="" style="edgeStyle=entityRelationEdgeStyle;startArrow=none;endArrow=none;segment=10;curved=1;exitX=0;exitY=0.5;exitDx=0;exitDy=0;entryX=0.5;entryY=0;entryDx=0;entryDy=0;" edge="1" target="c3Pu6eChfx6K2TWirxze-14" parent="WIyWlLk6GJQsqaUBKTNV-1" source="c3Pu6eChfx6K2TWirxze-9">
          <mxGeometry relative="1" as="geometry">
            <mxPoint x="-241" y="600" as="sourcePoint" />
          </mxGeometry>
        </mxCell>
        <mxCell id="c3Pu6eChfx6K2TWirxze-20" value="&lt;a href=&quot;https://github.com/orbitdb/orbit-db&quot;&gt;Orbit DB&lt;/a&gt; (?)" style="whiteSpace=wrap;html=1;rounded=1;arcSize=50;align=center;verticalAlign=middle;strokeWidth=1;autosize=1;spacing=4;treeFolding=1;treeMoving=1;newEdgeStyle={&quot;edgeStyle&quot;:&quot;entityRelationEdgeStyle&quot;,&quot;startArrow&quot;:&quot;none&quot;,&quot;endArrow&quot;:&quot;none&quot;,&quot;segment&quot;:10,&quot;curved&quot;:1};" vertex="1" parent="WIyWlLk6GJQsqaUBKTNV-1">
          <mxGeometry x="-371" y="533" width="100" height="30" as="geometry" />
        </mxCell>
        <mxCell id="c3Pu6eChfx6K2TWirxze-21" value="" style="edgeStyle=entityRelationEdgeStyle;startArrow=none;endArrow=none;segment=10;curved=1;entryX=0.5;entryY=0;entryDx=0;entryDy=0;" edge="1" target="c3Pu6eChfx6K2TWirxze-20" parent="WIyWlLk6GJQsqaUBKTNV-1" source="c3Pu6eChfx6K2TWirxze-9">
          <mxGeometry relative="1" as="geometry">
            <mxPoint x="-381" y="650" as="sourcePoint" />
          </mxGeometry>
        </mxCell>
        <mxCell id="c3Pu6eChfx6K2TWirxze-41" style="edgeStyle=orthogonalEdgeStyle;rounded=0;orthogonalLoop=1;jettySize=auto;html=1;exitX=0;exitY=0.5;exitDx=0;exitDy=0;" edge="1" parent="WIyWlLk6GJQsqaUBKTNV-1" source="c3Pu6eChfx6K2TWirxze-14" target="c3Pu6eChfx6K2TWirxze-40">
          <mxGeometry relative="1" as="geometry" />
        </mxCell>
        <mxCell id="c3Pu6eChfx6K2TWirxze-27" value="ID" style="swimlane;fontStyle=0;childLayout=stackLayout;horizontal=1;startSize=26;horizontalStack=0;resizeParent=1;resizeParentMax=0;resizeLast=0;collapsible=1;marginBottom=0;" vertex="1" parent="WIyWlLk6GJQsqaUBKTNV-1">
          <mxGeometry x="-701.25" y="630" width="192.5" height="230" as="geometry">
            <mxRectangle x="-701.25" y="630" width="40" height="26" as="alternateBounds" />
          </mxGeometry>
        </mxCell>
        <mxCell id="c3Pu6eChfx6K2TWirxze-28" value="The identity of the user can be stored on ceramic, this includes:" style="text;strokeColor=none;fillColor=none;align=left;verticalAlign=top;spacingLeft=4;spacingRight=4;overflow=hidden;rotatable=0;points=[[0,0.5],[1,0.5]];portConstraint=eastwest;whiteSpace=wrap;" vertex="1" parent="c3Pu6eChfx6K2TWirxze-27">
          <mxGeometry y="26" width="192.5" height="44" as="geometry" />
        </mxCell>
        <mxCell id="c3Pu6eChfx6K2TWirxze-29" value="- ETH address" style="text;strokeColor=none;fillColor=none;align=left;verticalAlign=top;spacingLeft=4;spacingRight=4;overflow=hidden;rotatable=0;points=[[0,0.5],[1,0.5]];portConstraint=eastwest;" vertex="1" parent="c3Pu6eChfx6K2TWirxze-27">
          <mxGeometry y="70" width="192.5" height="26" as="geometry" />
        </mxCell>
        <mxCell id="c3Pu6eChfx6K2TWirxze-34" value="- Stack overflow account" style="text;strokeColor=none;fillColor=none;align=left;verticalAlign=top;spacingLeft=4;spacingRight=4;overflow=hidden;rotatable=0;points=[[0,0.5],[1,0.5]];portConstraint=eastwest;" vertex="1" parent="c3Pu6eChfx6K2TWirxze-27">
          <mxGeometry y="96" width="192.5" height="26" as="geometry" />
        </mxCell>
        <mxCell id="c3Pu6eChfx6K2TWirxze-30" value="- Every protocol he subscribed to for a reward program" style="text;strokeColor=none;fillColor=none;align=left;verticalAlign=top;spacingLeft=4;spacingRight=4;overflow=hidden;rotatable=0;points=[[0,0.5],[1,0.5]];portConstraint=eastwest;whiteSpace=wrap;" vertex="1" parent="c3Pu6eChfx6K2TWirxze-27">
          <mxGeometry y="122" width="192.5" height="38" as="geometry" />
        </mxCell>
        <mxCell id="c3Pu6eChfx6K2TWirxze-35" value="- History of payment" style="text;strokeColor=none;fillColor=none;align=left;verticalAlign=top;spacingLeft=4;spacingRight=4;overflow=hidden;rotatable=0;points=[[0,0.5],[1,0.5]];portConstraint=eastwest;whiteSpace=wrap;" vertex="1" parent="c3Pu6eChfx6K2TWirxze-27">
          <mxGeometry y="160" width="192.5" height="30" as="geometry" />
        </mxCell>
        <mxCell id="c3Pu6eChfx6K2TWirxze-36" value="- User reputation from based on past activity" style="text;strokeColor=none;fillColor=none;align=left;verticalAlign=top;spacingLeft=4;spacingRight=4;overflow=hidden;rotatable=0;points=[[0,0.5],[1,0.5]];portConstraint=eastwest;whiteSpace=wrap;" vertex="1" parent="c3Pu6eChfx6K2TWirxze-27">
          <mxGeometry y="190" width="192.5" height="40" as="geometry" />
        </mxCell>
        <mxCell id="c3Pu6eChfx6K2TWirxze-40" value="&lt;h1&gt;&lt;font style=&quot;font-size: 18px&quot;&gt;Why ceramic&lt;/font&gt;&lt;/h1&gt;&lt;p&gt;- Decentralized and permissionless&lt;br&gt;- Allow &lt;font color=&quot;#ff0303&quot;&gt;composability&lt;/font&gt;&amp;nbsp;:&amp;nbsp;All streams on Ceramic exist within a single global namespace, allowing &lt;font color=&quot;#ff050d&quot;&gt;anyone&lt;/font&gt; to reference and aggregate multiple streams into higher-order compositions or fork and remix existing streams into entirely new creations.&lt;/p&gt;" style="text;html=1;strokeColor=none;fillColor=none;spacing=5;spacingTop=-20;whiteSpace=wrap;overflow=hidden;rounded=0;align=left;" vertex="1" parent="WIyWlLk6GJQsqaUBKTNV-1">
          <mxGeometry x="-1080" y="455" width="287" height="190" as="geometry" />
        </mxCell>
      </root>
    </mxGraphModel>
  </diagram>
</mxfile>
